<?xml version="1.0" encoding="UTF-8"?>
<svg id="_Слой_2" data-name="Слой 2" xmlns="http://www.w3.org/2000/svg" viewBox="0 0 652.93 438.34">
  <defs>
    <style>
      .cls-1 {
        stroke: #000;
        stroke-miterlimit: 10;
      }

      .cls-2 {
        fill: none;
        opacity: 0;
      }
    </style>
  </defs>
  <g id="_Слой_1-2" data-name="Слой 1">
    <g class="cls-2">
      <path class="cls-1" d="m6.95,80.42s1.31-69,1.31-69c0,0,4.5-10.31,10.5-10.41C53.3,0,120.36.86,153.77.55c149.95-.13,330.99.15,480.66-.05,13.7,2.52,11.39,28.04,11.25,34.45,1.62,68.59,4.45,316.42,6.75,389.25-.11,12.67-19.32,15.57-27.71,12.51-178.79-.42-434.55-.31-613.12-.14,0,0-10.69-1.69-10.97-11.81C-.56,364.03,7.06,143.28,6.95,80.42Z"/>
    </g>
  </g>
</svg>